<?xml version="1.0" encoding="UTF-8" standalone="no"?>
<svg width="1440" height="600" viewBox="0 0 1440 600" fill="none" xmlns="http://www.w3.org/2000/svg">
  <defs>
    <linearGradient id="gradient1" x1="0%" y1="0%" x2="100%" y2="100%">
      <stop offset="0%" stop-color="#8A2BE2" stop-opacity="0.1" />
      <stop offset="100%" stop-color="#FF00FF" stop-opacity="0.15" />
    </linearGradient>
    
    <filter id="blur1" x="-50%" y="-50%" width="200%" height="200%">
      <feGaussianBlur in="SourceGraphic" stdDeviation="60" />
    </filter>
    
    <filter id="blur2" x="-50%" y="-50%" width="200%" height="200%">
      <feGaussianBlur in="SourceGraphic" stdDeviation="30" />
    </filter>
    
    <filter id="noise" x="0%" y="0%" width="100%" height="100%">
      <feTurbulence type="fractalNoise" baseFrequency="0.65" numOctaves="3" stitchTiles="stitch" />
      <feColorMatrix type="matrix" values="0 0 0 0 0 0 0 0 0 0 0 0 0 0 0 0 0 0 0.1 0" />
      <feComposite operator="in" in2="SourceGraphic" />
    </filter>
  </defs>
  
  <!-- Fluid shapes -->
  <g filter="url(#blur1)">
    <ellipse cx="300" cy="200" rx="300" ry="200" fill="#8A2BE2" opacity="0.08" />
    <ellipse cx="900" cy="400" rx="400" ry="250" fill="#FF00FF" opacity="0.06" />
    <ellipse cx="1200" cy="150" rx="250" ry="150" fill="#8A2BE2" opacity="0.07" />
  </g>
  
  <!-- Smaller fluid elements -->
  <g filter="url(#blur2)">
    <circle cx="200" cy="300" r="50" fill="#FF00FF" opacity="0.1" />
    <circle cx="1000" cy="200" r="70" fill="#8A2BE2" opacity="0.1" />
    <circle cx="600" cy="450" r="60" fill="#FF00FF" opacity="0.1" />
    <circle cx="1300" cy="350" r="80" fill="#8A2BE2" opacity="0.1" />
  </g>
  
  <!-- Subtle grid -->
  <g opacity="0.03">
    <line x1="0" y1="150" x2="1440" y2="150" stroke="white" />
    <line x1="0" y1="300" x2="1440" y2="300" stroke="white" />
    <line x1="0" y1="450" x2="1440" y2="450" stroke="white" />
    
    <line x1="360" y1="0" x2="360" y2="600" stroke="white" />
    <line x1="720" y1="0" x2="720" y2="600" stroke="white" />
    <line x1="1080" y1="0" x2="1080" y2="600" stroke="white" />
  </g>
  
  <!-- Noise overlay -->
  <rect width="1440" height="600" fill="url(#gradient1)" filter="url(#noise)" opacity="0.4" />
</svg>
