<svg width="600" height="400" viewBox="0 0 600 400" fill="none" xmlns="http://www.w3.org/2000/svg">
  <!-- Dark background -->
  <rect width="600" height="400" fill="#14001f"/>
  
  <!-- Abstract shapes -->
  <path d="M300 100C350 100 390 140 390 190C390 240 350 280 300 280C250 280 210 240 210 190C210 140 250 100 300 100Z" fill="url(#grad1)" opacity="0.1"/>
  <path d="M400 50C450 50 490 90 490 140C490 190 450 230 400 230C350 230 310 190 310 140C310 90 350 50 400 50Z" fill="url(#grad2)" opacity="0.08"/>
  <path d="M200 150C250 150 290 190 290 240C290 290 250 330 200 330C150 330 110 290 110 240C110 190 150 150 200 150Z" fill="url(#grad3)" opacity="0.05"/>
  
  <!-- Minimalistic grid lines -->
  <line x1="0" y1="200" x2="600" y2="200" stroke="#8A2BE2" stroke-width="0.5" opacity="0.2"/>
  <line x1="300" y1="0" x2="300" y2="400" stroke="#8A2BE2" stroke-width="0.5" opacity="0.2"/>
  
  <!-- Subtle dots -->
  <circle cx="150" cy="100" r="2" fill="white" opacity="0.3"/>
  <circle cx="200" cy="150" r="2" fill="white" opacity="0.3"/>
  <circle cx="250" cy="200" r="2" fill="white" opacity="0.3"/>
  <circle cx="300" cy="250" r="2" fill="white" opacity="0.3"/>
  <circle cx="350" cy="300" r="2" fill="white" opacity="0.3"/>
  <circle cx="400" cy="350" r="2" fill="white" opacity="0.3"/>
  <circle cx="450" cy="100" r="2" fill="white" opacity="0.3"/>
  <circle cx="500" cy="150" r="2" fill="white" opacity="0.3"/>
  
  <!-- Gradients -->
  <defs>
    <linearGradient id="grad1" x1="200" y1="100" x2="400" y2="300" gradientUnits="userSpaceOnUse">
      <stop offset="0" stop-color="#8A2BE2"/>
      <stop offset="1" stop-color="#FF00FF"/>
    </linearGradient>
    <linearGradient id="grad2" x1="300" y1="50" x2="500" y2="250" gradientUnits="userSpaceOnUse">
      <stop offset="0" stop-color="#8A2BE2"/>
      <stop offset="1" stop-color="#FF00FF"/>
    </linearGradient>
    <linearGradient id="grad3" x1="100" y1="150" x2="300" y2="350" gradientUnits="userSpaceOnUse">
      <stop offset="0" stop-color="#8A2BE2"/>
      <stop offset="1" stop-color="#FF00FF"/>
    </linearGradient>
  </defs>
</svg>
