<?xml version="1.0" encoding="UTF-8" standalone="no"?>
<svg width="120" height="120" viewBox="0 0 120 120" fill="none" xmlns="http://www.w3.org/2000/svg">
  <defs>
    <!-- Gradients -->
    <linearGradient id="logoGradient" x1="0%" y1="0%" x2="100%" y2="100%">
      <stop offset="0%" stop-color="#8A2BE2" />
      <stop offset="100%" stop-color="#FF00FF" />
    </linearGradient>
    
    <linearGradient id="glassGradient" x1="0%" y1="0%" x2="100%" y2="100%">
      <stop offset="0%" stop-color="white" stop-opacity="0.15" />
      <stop offset="100%" stop-color="white" stop-opacity="0.05" />
    </linearGradient>
    
    <!-- Filters -->
    <filter id="glow" x="-20%" y="-20%" width="140%" height="140%">
      <feGaussianBlur stdDeviation="4" result="blur" />
      <feComposite in="SourceGraphic" in2="blur" operator="over" />
    </filter>
    
    <filter id="dropShadow" x="-20%" y="-20%" width="140%" height="140%">
      <feDropShadow dx="0" dy="4" stdDeviation="4" flood-color="#000000" flood-opacity="0.3" />
    </filter>
    
    <!-- Clip paths -->
    <clipPath id="hexClip">
      <path d="M60 10L105 40V90L60 120L15 90V40L60 10Z" />
    </clipPath>
  </defs>
  
  <!-- Background hexagon with glass effect -->
  <g filter="url(#dropShadow)">
    <path d="M60 10L105 40V90L60 120L15 90V40L60 10Z" fill="#14001F" />
    <path d="M60 15L100 42.5V85L60 112.5L20 85V42.5L60 15Z" fill="url(#glassGradient)" />
  </g>
  
  <!-- Subtle grid pattern -->
  <g clip-path="url(#hexClip)" opacity="0.1">
    <line x1="0" y1="30" x2="120" y2="30" stroke="white" stroke-width="0.5" />
    <line x1="0" y1="60" x2="120" y2="60" stroke="white" stroke-width="0.5" />
    <line x1="0" y1="90" x2="120" y2="90" stroke="white" stroke-width="0.5" />
    <line x1="30" y1="0" x2="30" y2="120" stroke="white" stroke-width="0.5" />
    <line x1="60" y1="0" x2="60" y2="120" stroke="white" stroke-width="0.5" />
    <line x1="90" y1="0" x2="90" y2="120" stroke="white" stroke-width="0.5" />
  </g>
  
  <!-- Glowing accent lines -->
  <g filter="url(#glow)">
    <path d="M60 20L95 42.5V85L60 107.5L25 85V42.5L60 20Z" stroke="url(#logoGradient)" stroke-width="1.5" fill="none" />
  </g>
  
  <!-- Logo letters with gradient -->
  <g filter="url(#dropShadow)">
    <!-- A -->
    <path d="M40 75L50 45L60 75H40Z" fill="url(#logoGradient)" />
    <path d="M45 65H55" stroke="white" stroke-width="2" />
    
    <!-- d -->
    <path d="M65 45V75H75C80 75 85 70 85 65V55C85 50 80 45 75 45H65Z" fill="url(#logoGradient)" />
    <path d="M75 55H65" stroke="white" stroke-width="2" />
    <path d="M75 65H65" stroke="white" stroke-width="2" />
  </g>
  
  <!-- Subtle shine effect -->
  <path d="M30 40L90 40L90 42L30 42Z" fill="white" opacity="0.2" />
  
  <!-- Accent dots -->
  <circle cx="30" cy="60" r="2" fill="white" />
  <circle cx="90" cy="60" r="2" fill="white" />
</svg>
